# xmcd
#
# Track frame offsets:
#	150
#	15140
#	27105
#	40605
#	52732
#	66852
#	78545
#	88462
#	99780
#	112087
#	123785
#	132830
#	144532
#	155212
#	168442
#	178767
#	191535
#	205050
#
# Disc length: 2874 seconds
#
# Revision: 0
# Processed by: cddbd v1.5.2PL0 Copyright (c) Steve Scherf et al.
# Submitted via: audiograbber 1.83.01
#
DISCID=e80b3812
DTITLE=Teresa Brewer - Music Music Music
DYEAR=1900
DGENRE=Rock and Roll
TTITLE0=Music Music Music
TTITLE1=You'll Never Get Away
TTITLE2=Till I Waltz Again With You
TTITLE3=Ricochet
TTITLE4=Love Me Do
TTITLE5=Bell Bottom Blues
TTITLE6=Jilted
TTITLE7=Let Me Go Lover
TTITLE8=Pledging My Love
TTITLE9=Silver Dollar
TTITLE10=Banjo's Back In Town
TTITLE11=A Tear Fell
TTITLE12=Bo Weevil
TTITLE13=A Sweet Old Fashioned Girl
TTITLE14=Mutual Admiration Society
TTITLE15=Empty Arms
TTITLE16=You Send Me
TTITLE17=Milord
EXTD=
EXTT0=
EXTT1=
EXTT2=
EXTT3=
EXTT4=
EXTT5=
EXTT6=
EXTT7=
EXTT8=
EXTT9=
EXTT10=
EXTT11=
EXTT12=
EXTT13=
EXTT14=
EXTT15=
EXTT16=
EXTT17=
PLAYORDER=
